<svg width="32" height="32" viewBox="0 0 32 32" fill="none" xmlns="http://www.w3.org/2000/svg">
<path d="M12.2236 6.52587C12.2236 6.84243 12.0288 7.13463 11.7123 7.13463H10.787C10.373 7.13463 10.1782 6.81808 10.1782 6.52587V0.608757C10.1782 0.292203 10.373 0 10.6896 0H11.6149C12.0288 0 12.2236 0.316554 12.2236 0.608757V6.52587Z" fill="white"/>
<path d="M25.7624 31.0716H10.1782C10.1782 24.1561 10.1782 17.0215 10.1782 9.98425H25.7624V13.8559H14.0499V18.7503H25.4458V22.4272H14.0499V27.2242H25.7624V31.0716Z" fill="white"/>
<!-- <path d="M32.1665 10.081V31.1684H28.6113V10.081H32.1665Z" fill="white"/> -->
<!-- <path d="M47.0446 16.2904H50.5998V31.1684H47.142L46.9472 29.0255C46.1437 30.7544 43.7817 31.5823 42.272 31.5823C37.8889 31.5823 34.626 28.8307 34.626 23.6441C34.626 18.5549 37.9863 15.8034 42.3694 15.9008C44.293 15.9008 46.1437 16.8261 47.0446 18.3358V16.2904ZM38.1811 23.7415C38.1811 26.4931 40.1048 28.222 42.5642 28.222C48.3595 28.222 48.3595 19.1637 42.5642 19.1637C40.1291 19.1637 38.1811 20.8926 38.1811 23.7415Z" fill="white"/> -->
<!-- <path d="M58.7569 12.0291V16.2903H62.8233V19.4559H58.7569V25.8844C58.7569 27.321 59.463 28.0272 60.6805 28.0272C61.1919 28.0272 61.898 27.8324 62.4094 27.5158L63.4321 30.6814C62.4094 31.1927 61.5084 31.2901 60.4857 31.2901C57.3202 31.3875 55.1774 29.5612 55.1774 25.8844V19.3585H52.4258V16.2903H55.1774V12.4187L58.7569 12.0291Z" fill="white"/> -->
<!-- <path d="M69.4468 12.0291C69.4468 14.878 65.1611 14.878 65.1611 12.0291C65.1611 9.18007 69.4468 9.27747 69.4468 12.0291ZM65.3803 16.2903V31.2658H69.0572V16.2903H65.3803Z" fill="white"/> -->
<!-- <path d="M86.9792 23.7415C86.9792 28.0271 84.1302 31.4849 79.2358 31.4849C74.4388 31.4849 71.5898 28.0271 71.5898 23.7415C71.5898 19.4558 74.4388 15.9981 79.2358 15.9981C84.0085 15.9981 86.9792 19.4558 86.9792 23.7415ZM75.3641 23.7415C75.3641 25.9817 76.6791 28.1245 79.3332 28.1245C81.9874 28.1245 83.3023 25.9817 83.3023 23.7415C83.3023 21.5013 81.7683 19.3584 79.3332 19.3584C76.6791 19.3584 75.3641 21.5013 75.3641 23.7415Z" fill="white"/> -->
<!-- <path d="M100.323 31.0709V23.3275C100.323 21.0873 99.1055 19.3584 96.7678 19.3584C94.5276 19.3584 93.091 21.1847 93.091 23.5223V31.0709H89.4141V16.1929H92.677L92.9936 18.2383C94.5276 16.7043 95.9399 15.9981 97.7906 15.9981C101.248 15.9981 104 18.6523 104 23.3275V31.1683L100.323 31.0709Z" fill="white"/> -->
<path d="M0.608756 12.2238C0.292203 12.2238 0 12.029 0 11.7125V10.7872C0 10.3732 0.316553 10.1784 0.608756 10.1784H6.40412C6.81808 10.1784 7.11028 10.3732 7.11028 10.6898V11.6151C7.11028 12.029 6.79373 12.2238 6.50152 12.2238H0.608756Z" fill="white"/>
<path d="M15.1704 8.96086C14.8538 9.27742 14.5616 9.27742 14.2451 8.96086L13.4415 8.1573C13.125 7.84075 13.125 7.54855 13.4415 7.35375L17.4106 3.28725C17.7272 2.9707 18.0194 2.9707 18.3359 3.28725L19.1395 4.09081C19.456 4.40736 19.456 4.69957 19.1395 5.01612L15.1704 8.96086Z" fill="white"/>
<path d="M4.99167 20.162C4.67512 20.4786 4.38292 20.4786 4.06636 20.162L3.26281 19.3585C2.94625 19.0419 2.94625 18.7497 3.26281 18.5549L7.2319 14.4884C7.54845 14.1719 7.84066 14.1719 8.15721 14.4884L8.96077 15.292C9.27732 15.6085 9.27732 15.9007 8.96077 16.2173L4.99167 20.162Z" fill="white"/>
<path d="M3.23839 4.9918C2.92184 4.67524 2.92184 4.38304 3.23839 4.06649L4.04195 3.26293C4.3585 2.94637 4.65071 2.94637 4.84551 3.26293L8.912 7.23202C9.22856 7.54858 9.22856 7.84078 8.912 8.15733L8.10845 8.96089C7.79189 9.27745 7.49969 9.27745 7.18314 8.96089L3.23839 4.9918Z" fill="white"/>
</svg>
